<svg width="25" height="27" viewBox="0 0 25 27" fill="none" xmlns="http://www.w3.org/2000/svg">
<path d="M0.81 26.37C0.93 26.178 1.05 25.986 1.17 25.794C1.29 25.59 1.416 25.386 1.548 25.182L9.45 13.5C7.998 11.34 6.558 9.204 5.13 7.092C3.714 4.98 2.37 2.982 1.098 1.098L1.008 0.971998C0.9 0.791998 0.846 0.653998 0.846 0.557998C0.846 0.425999 0.912 0.353999 1.044 0.341999C1.176 0.317999 1.326 0.293999 1.494 0.27H5.742C6.006 0.27 6.222 0.33 6.39 0.45C6.57 0.557999 6.75 0.743998 6.93 1.008L12.384 9.108L17.874 1.008C18.066 0.743998 18.246 0.557999 18.414 0.45C18.594 0.33 18.816 0.27 19.08 0.27H23.364C23.556 0.281999 23.7 0.311999 23.796 0.36C23.892 0.395998 23.94 0.473998 23.94 0.593998C23.94 0.701998 23.868 0.863999 23.724 1.08C22.44 2.964 21.078 4.968 19.638 7.092C18.198 9.204 16.758 11.34 15.318 13.5L23.814 26.064C23.922 26.232 23.988 26.376 24.012 26.496C24.048 26.604 24.066 26.688 24.066 26.748C24.066 26.916 23.934 27 23.67 27H19.134C18.966 27 18.822 26.97 18.702 26.91C18.582 26.85 18.468 26.766 18.36 26.658C18.252 26.55 18.144 26.418 18.036 26.262C17.94 26.106 17.826 25.932 17.694 25.74C16.794 24.42 15.906 23.106 15.03 21.798C14.166 20.49 13.284 19.176 12.384 17.856C11.424 19.272 10.47 20.688 9.522 22.104C8.586 23.508 7.644 24.918 6.696 26.334C6.432 26.778 6.096 27 5.688 27H1.116C0.852 27 0.72 26.91 0.72 26.73C0.72 26.694 0.732 26.628 0.756 26.532C0.78 26.436 0.798 26.382 0.81 26.37Z" fill="black"/>
</svg>
